<svg xmlns="http://www.w3.org/2000/svg" xmlns:xlink="http://www.w3.org/1999/xlink" width="203" height="180" viewBox="0 0 203 180"><defs><style>.a{fill:none;}.b{opacity:0.53;clip-path:url(#a);}.c{fill:#9c3;}</style><clipPath id="a"><rect class="a" width="203" height="180"/></clipPath></defs><g class="b"><g transform="translate(-918 -793)"><circle class="c" cx="2.5" cy="2.5" r="2.5" transform="translate(918 793)"/></g><g transform="translate(-890 -793)"><circle class="c" cx="2.5" cy="2.5" r="2.5" transform="translate(918 793)"/></g><g transform="translate(-862 -793)"><circle class="c" cx="2.5" cy="2.5" r="2.5" transform="translate(918 793)"/></g><g transform="translate(-834 -793)"><circle class="c" cx="2.5" cy="2.5" r="2.5" transform="translate(918 793)"/></g><g transform="translate(-806 -793)"><circle class="c" cx="2.5" cy="2.5" r="2.5" transform="translate(918 793)"/></g><g transform="translate(-778 -793)"><circle class="c" cx="2.5" cy="2.5" r="2.5" transform="translate(918 793)"/></g><g transform="translate(-750 -793)"><circle class="c" cx="2.5" cy="2.5" r="2.5" transform="translate(918 793)"/></g><g transform="translate(-722 -793)"><circle class="c" cx="2.5" cy="2.5" r="2.5" transform="translate(918 793)"/></g><g transform="translate(-918 -765)"><circle class="c" cx="2.5" cy="2.5" r="2.5" transform="translate(918 793)"/></g><g transform="translate(-890 -765)"><circle class="c" cx="2.5" cy="2.5" r="2.5" transform="translate(918 793)"/></g><g transform="translate(-862 -765)"><circle class="c" cx="2.5" cy="2.5" r="2.5" transform="translate(918 793)"/></g><g transform="translate(-834 -765)"><circle class="c" cx="2.5" cy="2.5" r="2.5" transform="translate(918 793)"/></g><g transform="translate(-806 -765)"><circle class="c" cx="2.5" cy="2.5" r="2.5" transform="translate(918 793)"/></g><g transform="translate(-778 -765)"><circle class="c" cx="2.5" cy="2.5" r="2.5" transform="translate(918 793)"/></g><g transform="translate(-750 -765)"><circle class="c" cx="2.5" cy="2.5" r="2.5" transform="translate(918 793)"/></g><g transform="translate(-722 -765)"><circle class="c" cx="2.5" cy="2.5" r="2.5" transform="translate(918 793)"/></g><g transform="translate(-918 -737)"><circle class="c" cx="2.5" cy="2.5" r="2.5" transform="translate(918 793)"/></g><g transform="translate(-890 -737)"><circle class="c" cx="2.5" cy="2.5" r="2.5" transform="translate(918 793)"/></g><g transform="translate(-862 -737)"><circle class="c" cx="2.5" cy="2.5" r="2.5" transform="translate(918 793)"/></g><g transform="translate(-834 -737)"><circle class="c" cx="2.5" cy="2.5" r="2.5" transform="translate(918 793)"/></g><g transform="translate(-806 -737)"><circle class="c" cx="2.5" cy="2.5" r="2.5" transform="translate(918 793)"/></g><g transform="translate(-778 -737)"><circle class="c" cx="2.5" cy="2.5" r="2.5" transform="translate(918 793)"/></g><g transform="translate(-750 -737)"><circle class="c" cx="2.5" cy="2.5" r="2.5" transform="translate(918 793)"/></g><g transform="translate(-722 -737)"><circle class="c" cx="2.5" cy="2.5" r="2.5" transform="translate(918 793)"/></g><g transform="translate(-918 -709)"><circle class="c" cx="2.5" cy="2.5" r="2.5" transform="translate(918 793)"/></g><g transform="translate(-890 -709)"><circle class="c" cx="2.5" cy="2.5" r="2.5" transform="translate(918 793)"/></g><g transform="translate(-862 -709)"><circle class="c" cx="2.5" cy="2.5" r="2.5" transform="translate(918 793)"/></g><g transform="translate(-834 -709)"><circle class="c" cx="2.5" cy="2.5" r="2.5" transform="translate(918 793)"/></g><g transform="translate(-806 -709)"><circle class="c" cx="2.5" cy="2.5" r="2.5" transform="translate(918 793)"/></g><g transform="translate(-778 -709)"><circle class="c" cx="2.5" cy="2.5" r="2.5" transform="translate(918 793)"/></g><g transform="translate(-750 -709)"><circle class="c" cx="2.5" cy="2.5" r="2.5" transform="translate(918 793)"/></g><g transform="translate(-722 -709)"><circle class="c" cx="2.5" cy="2.5" r="2.5" transform="translate(918 793)"/></g><g transform="translate(-918 -681)"><circle class="c" cx="2.5" cy="2.5" r="2.5" transform="translate(918 793)"/></g><g transform="translate(-890 -681)"><circle class="c" cx="2.5" cy="2.5" r="2.5" transform="translate(918 793)"/></g><g transform="translate(-862 -681)"><circle class="c" cx="2.5" cy="2.5" r="2.5" transform="translate(918 793)"/></g><g transform="translate(-834 -681)"><circle class="c" cx="2.5" cy="2.5" r="2.5" transform="translate(918 793)"/></g><g transform="translate(-806 -681)"><circle class="c" cx="2.5" cy="2.5" r="2.5" transform="translate(918 793)"/></g><g transform="translate(-778 -681)"><circle class="c" cx="2.5" cy="2.5" r="2.5" transform="translate(918 793)"/></g><g transform="translate(-750 -681)"><circle class="c" cx="2.5" cy="2.5" r="2.5" transform="translate(918 793)"/></g><g transform="translate(-722 -681)"><circle class="c" cx="2.5" cy="2.5" r="2.5" transform="translate(918 793)"/></g><g transform="translate(-918 -653)"><circle class="c" cx="2.5" cy="2.5" r="2.5" transform="translate(918 793)"/></g><g transform="translate(-890 -653)"><circle class="c" cx="2.5" cy="2.5" r="2.5" transform="translate(918 793)"/></g><g transform="translate(-862 -653)"><circle class="c" cx="2.5" cy="2.5" r="2.5" transform="translate(918 793)"/></g><g transform="translate(-834 -653)"><circle class="c" cx="2.5" cy="2.5" r="2.5" transform="translate(918 793)"/></g><g transform="translate(-806 -653)"><circle class="c" cx="2.5" cy="2.5" r="2.5" transform="translate(918 793)"/></g><g transform="translate(-778 -653)"><circle class="c" cx="2.5" cy="2.5" r="2.5" transform="translate(918 793)"/></g><g transform="translate(-750 -653)"><circle class="c" cx="2.5" cy="2.5" r="2.5" transform="translate(918 793)"/></g><g transform="translate(-722 -653)"><circle class="c" cx="2.5" cy="2.5" r="2.5" transform="translate(918 793)"/></g><g transform="translate(-918 -625)"><circle class="c" cx="2.5" cy="2.5" r="2.5" transform="translate(918 793)"/></g><g transform="translate(-890 -625)"><circle class="c" cx="2.5" cy="2.5" r="2.5" transform="translate(918 793)"/></g><g transform="translate(-862 -625)"><circle class="c" cx="2.5" cy="2.5" r="2.5" transform="translate(918 793)"/></g><g transform="translate(-834 -625)"><circle class="c" cx="2.5" cy="2.5" r="2.5" transform="translate(918 793)"/></g><g transform="translate(-806 -625)"><circle class="c" cx="2.5" cy="2.5" r="2.5" transform="translate(918 793)"/></g><g transform="translate(-778 -625)"><circle class="c" cx="2.5" cy="2.5" r="2.5" transform="translate(918 793)"/></g><g transform="translate(-750 -625)"><circle class="c" cx="2.5" cy="2.5" r="2.5" transform="translate(918 793)"/></g><g transform="translate(-722 -625)"><circle class="c" cx="2.5" cy="2.5" r="2.5" transform="translate(918 793)"/></g></g></svg>